<?xml version="1.0" encoding="UTF-8"?>
<!DOCTYPE svg PUBLIC "-//W3C//DTD SVG 1.1//EN" "http://www.w3.org/Graphics/SVG/1.1/DTD/svg11.dtd">
<!-- Creator: CorelDRAW X8 -->
<svg xmlns="http://www.w3.org/2000/svg" xml:space="preserve" width="1145px" height="879px" version="1.1" style="shape-rendering:geometricPrecision; text-rendering:geometricPrecision; image-rendering:optimizeQuality; fill-rule:evenodd; clip-rule:evenodd"
viewBox="0 0 127858 98154"
 xmlns:xlink="http://www.w3.org/1999/xlink">
 <defs>
  <style type="text/css">
   <![CDATA[
    .fil1 {fill:none;fill-rule:nonzero}
    .fil0 {fill:white;fill-rule:nonzero}
   ]]>
  </style>
 </defs>
 <g id="Слой_x0020_1">
  <metadata id="CorelCorpID_0Corel-Layer"/>
  <g id="RIZAEVA_x0020_FILL">
   <path class="fil0" d="M34335 94078l-1918 -2169 0 2787 1918 -618zm467 -164c2144,-719 3330,-1413 3330,-2775 0,-1275 -694,-1930 -3419,-1930l-2296 0 0 2005 2385 2700zm-3520 3937c378,0 694,-165 694,-1275l0 -6157c0,-1109 -316,-1274 -694,-1274l0 -63 3582 0c1893,0 3735,152 3735,2107 0,1741 -2069,2359 -3684,2864l2221 2523c833,946 1375,1275 1665,1275l0 62 -1855 0 0 -62c455,0 417,-329 -416,-1275l-2094 -2385 -2019 657 0 1728c0,1110 316,1275 694,1275l0 62 -1829 0 0 -62z"/>
   <path class="fil0" d="M43004 89069c303,0 504,202 504,505 0,303 -201,505 -504,505 -303,0 -492,-202 -492,-505 0,-303 189,-505 492,-505zm-795 2057l1135 -126 0 5551c0,1135 315,1300 694,1300l0 62 -1829 0 0 -62c379,0 694,-165 694,-1275l0 -4113c0,-1110 -303,-1274 -694,-1274l0 -63z"/>
   <path class="fil0" d="M54737 95920c-516,1186 -1071,1868 -2749,1868l-3785 0c0,-1120 995,-2353 2352,-3569l96 -83 61 -57 3 2c46,-41 96,-85 149,-129 63,-53 127,-108 189,-161 44,-40 88,-77 133,-113l91 -76c75,-62 126,-104 126,-104 946,-774 1999,-1529 2982,-2247l0 -124 -5994 0 -555 2169 63 0c695,-1803 1087,-2045 2183,-2045l3545 0c-944,709 -1943,1451 -2843,2194 -65,53 -127,106 -184,155 -231,195 -408,352 -477,412l-30 28c-1349,1224 -2344,2481 -2344,3748l0 126 6383 0 670 -1994 -65 0z"/>
   <path class="fil0" d="M61754 93334c-2598,0 -3078,1110 -3078,2169 0,1060 744,2121 2789,2121 2573,0 3330,-1729 3330,-3268l0 -1073c0,-517 -177,-958 -517,-1299 239,530 -341,1350 -2524,1350zm2120 -1666c-518,-328 -1249,-504 -2170,-504 -1956,0 -2675,845 -2675,1425 0,228 51,265 114,354 -50,50 -151,76 -265,76 -214,0 -467,-127 -467,-505 0,-795 1136,-1514 3330,-1514 1842,0 3496,606 3496,2233l12 3810c0,707 214,808 681,808l0 62 -1135 0 0 -2182c-467,1514 -1741,2309 -3469,2309 -1665,0 -3116,-732 -3116,-2473 0,-1741 1337,-2473 3418,-2473 2435,0 2851,-1009 2246,-1426z"/>
   <path class="fil0" d="M72971 91164c-2447,0 -3103,1779 -3103,3204 0,492 88,1010 291,1502 -253,-972 251,-2094 1463,-2094 1349,0 1880,1135 3255,1135 781,0 959,-707 959,-1274 0,-1263 -1111,-2473 -2865,-2473zm3319 4579c-253,1527 -1313,2297 -3142,2297 -2258,0 -3734,-1174 -3734,-3520 0,-2347 1362,-3520 3557,-3520 1969,0 3319,1059 3319,2700 0,618 -353,1388 -1413,1388 -1098,0 -2082,-897 -3230,-897 -1439,0 -1678,1767 -820,2637 517,480 1287,796 2409,796 2057,0 2839,-1098 2990,-1881l64 0z"/>
   <path class="fil0" d="M84693 92892c429,-933 379,-1703 0,-1703l0 -63 1552 0 0 63c-379,0 -959,770 -1388,1703l-1716 3772c-353,783 -226,1187 190,1187l0 62 -1350 0 0 -62c416,0 366,-506 25,-1275l-1829 -4113c-492,-1098 -833,-1274 -1211,-1274l0 -63 1854 0 0 63c-378,0 -643,176 -151,1274l2094 4706 1930 -4277z"/>
   <path class="fil0" d="M92399 93334c-2598,0 -3077,1110 -3077,2169 0,1060 744,2121 2789,2121 2572,0 3330,-1729 3330,-3268l0 -1073c0,-517 -177,-958 -516,-1299 237,530 -344,1350 -2526,1350zm2121 -1666c-516,-328 -1251,-504 -2172,-504 -1954,0 -2673,845 -2673,1425 0,228 50,265 113,354 -50,50 -151,76 -264,76 -215,0 -467,-127 -467,-505 0,-795 1135,-1514 3333,-1514 1842,0 3493,606 3493,2233l14 3810c0,707 214,808 679,808l0 62 -1135 0 0 -2182c-469,1514 -1739,2309 -3470,2309 -1665,0 -3116,-732 -3116,-2473 0,-1741 1337,-2473 3419,-2473 2437,0 2851,-1009 2246,-1426z"/>
  </g>
  <g id="RIZAEVA">
   <path class="fil0" d="M34335 94078l86 -76 -2118 -2396 0 3247 2234 -720 -116 -131 -86 76 -35 -109 -1768 570 0 -2328 1717 1943 86 -76 -35 -109 35 109zm467 -164l36 109c1077,-362 1919,-717 2503,-1164 585,-446 909,-1004 906,-1720 4,-654 -188,-1196 -741,-1540 -550,-344 -1421,-504 -2793,-505l-2410 0 0 2164 2464 2789 71 -24 -36 -109 86 -75 -2356 -2668 0 -1848 2181 0c1354,-1 2192,166 2671,470 475,302 630,726 634,1346 -2,646 -272,1116 -816,1538 -545,419 -1368,771 -2436,1129l36 108 86 -75 -86 75zm-3520 3937l0 114c202,3 432,-51 582,-270 150,-215 225,-553 226,-1119l0 -6157c-1,-565 -76,-903 -226,-1119 -150,-219 -380,-272 -582,-269l0 114 114 0 0 -63 -114 0 0 115 3582 0c943,-1 1867,40 2535,312 334,135 602,324 789,592 187,267 296,617 296,1088 -1,820 -478,1370 -1181,1798 -700,425 -1614,705 -2422,957l-168 52 2337 2656c420,477 769,801 1055,1008 287,207 508,303 696,305l0 -114 -114 0 0 62 114 0 0 -114 -1855 0 0 114 115 0 0 -62 -115 0 0 114c104,-1 196,-14 275,-61 81,-46 133,-144 130,-239 -2,-137 -68,-279 -187,-467 -121,-187 -300,-416 -548,-697l-2144 -2442 -2169 706 0 1811c1,566 77,904 226,1119 150,219 380,273 582,270l0 -114 -115 0 0 62 115 0 0 -114 -1829 0 0 114 114 0 0 -62 -114 0 0 114 0 -114 -115 0 0 177 2059 0 0 -292 -115 0c-176,-3 -293,-31 -395,-172 -103,-144 -185,-443 -184,-988l0 -1645 1867 -608 2045 2329c244,276 417,498 527,670 112,169 153,292 150,343l-19 44c-19,13 -73,28 -156,27l-114 0 0 292 2084 0 0 -292 -115 0c-102,2 -297,-66 -562,-260 -266,-193 -605,-506 -1017,-975l-2221 -2524 -86 76 35 109c807,-252 1735,-533 2472,-979 736,-443 1293,-1073 1291,-1994 1,-507 -120,-908 -337,-1220 -328,-467 -859,-715 -1474,-847 -616,-133 -1325,-154 -2038,-154l-3697 0 0 291 115 0c176,4 293,32 395,173 104,144 185,443 184,987l0 6157c1,545 -80,844 -184,988 -102,141 -219,169 -395,172l-115 0 0 115 115 0z"/>
   <path class="fil0" d="M43004 89069l0 115c126,0 220,41 285,106 65,64 105,158 105,284 0,127 -40,220 -105,285 -65,64 -159,105 -285,105 -127,-1 -215,-40 -278,-103 -61,-64 -100,-159 -100,-287 0,-128 39,-222 100,-287 63,-63 151,-102 278,-103l0 -229c-177,-1 -333,61 -442,174 -109,112 -165,271 -165,445 0,175 56,333 165,446 109,113 265,174 442,174 177,0 335,-60 447,-173 112,-112 172,-270 172,-447 0,-176 -60,-335 -172,-447 -112,-111 -270,-173 -447,-172l0 114zm-795 2057l12 114 1009 -112 0 5423c1,578 77,922 225,1141 150,222 382,276 583,273l0 -114 -114 0 0 62 114 0 0 -114 -1829 0 0 114 114 0 0 -62 -114 0 0 114c202,3 432,-51 583,-270 149,-215 224,-553 225,-1119l0 -4113c-1,-564 -73,-902 -220,-1118 -149,-220 -381,-273 -588,-270l0 114 114 0 0 -63 -114 0 12 114 -12 -114 -114 0 0 178 114 0c183,3 299,31 399,171 102,143 182,443 181,988l0 4113c1,545 -81,844 -185,988 -102,141 -219,169 -395,172l-114 0 0 292 2058 0 0 -292 -115 0c-177,-3 -292,-30 -394,-174 -104,-148 -186,-453 -185,-1011l0 -5679 -1364 152 0 102 114 0z"/>
   <path class="fil0" d="M54737 95920l-105 -45c-255,587 -515,1034 -903,1332 -389,300 -916,465 -1741,466l-3785 0 0 115 115 0c-8,-1050 960,-2277 2314,-3484l2 -2 92 -80 1 -1 63 -59 -78 -83 -81 81 3 1 76 77 81 -72c45,-40 95,-83 146,-126l1 -1c63,-53 127,-109 189,-161l1 -1 2 -1c42,-38 84,-73 128,-109l2 -1 91 -77 -74 -87 72 88c76,-61 126,-103 126,-103 943,-771 1994,-1525 2978,-2243l46 -35 0 -297 -6196 0 -614 2398 288 0 29 -74c345,-897 615,-1393 910,-1653 292,-259 622,-317 1166,-318l3545 0 0 -114 -69 -92c-943,710 -1944,1452 -2847,2198 -66,54 -128,107 -185,154 -232,197 -410,355 -478,414l-2 2 -31 28 1 0c-1354,1232 -2376,2503 -2381,3833l0 241 6579 0 747 -2223 -299 0 -30 69 105 45 0 115 65 0 0 -115 -109 -36 -644 1916 -6185 0 0 -12c-5,-1203 962,-2447 2306,-3664l3 -2 28 -26 -78 -84 75 86c70,-61 247,-216 476,-411 58,-49 119,-101 182,-154 898,-741 1896,-1481 2840,-2191l274 -206 -3888 0c-552,-1 -967,63 -1318,375 -349,312 -622,838 -972,1743l107 42 0 -115 -63 0 0 115 111 28 534 -2083 5790 0 0 10 114 0 -68 -92c-983,717 -2036,1474 -2986,2250 0,0 -51,42 -127,104l-2 3 -89 74 73 88 -71 -89c-47,37 -93,76 -138,116l76 86 -74 -88c-63,54 -126,108 -189,162l74 87 -72 -89c-55,46 -106,90 -154,133l77 85 81 -81 -3 -3 -77 -77 -143 131 -93 81 -1 1c-1362,1225 -2384,2465 -2391,3655l0 114 3900 0c853,1 1443,-174 1880,-513 439,-338 714,-825 974,-1423l-105 -46 0 115 0 -115z"/>
   <path class="fil0" d="M61754 93334l0 -114c-1314,0 -2115,279 -2591,717 -477,439 -602,1022 -602,1566 0,556 198,1122 666,1543 468,421 1196,692 2238,692 1311,1 2185,-445 2718,-1099 534,-653 726,-1495 726,-2283l0 -1073c1,-543 -188,-1018 -551,-1380l-444 -444 259 572c27,59 40,120 40,184 0,199 -134,443 -519,649 -384,204 -1011,356 -1940,356l0 228c954,0 1614,-153 2047,-382 430,-227 641,-541 642,-851 0,-97 -22,-192 -61,-279l-104 48 -82 81c320,320 483,727 484,1218l0 1073c0,752 -186,1542 -674,2138 -489,595 -1280,1013 -2541,1015 -1004,0 -1670,-260 -2085,-633 -415,-374 -589,-868 -590,-1373 1,-514 115,-1017 528,-1398 413,-381 1152,-657 2436,-657l0 -114zm2120 -1666l61 -97c-543,-343 -1296,-522 -2231,-522 -994,0 -1686,215 -2134,515 -448,299 -655,688 -655,1025 0,121 13,205 41,273 30,69 68,110 94,147l93 -66 -82 -81c-7,13 -85,44 -183,42 -86,0 -175,-26 -239,-82 -62,-57 -112,-144 -113,-308 -1,-338 241,-683 778,-953 535,-268 1353,-447 2437,-447 909,0 1767,151 2383,492 617,344 995,854 998,1627l12 3810c2,362 51,595 199,749 153,152 359,172 597,173l0 -114 -115 0 0 62 115 0 0 -114 -1021 0 0 -2829 -223 727c-456,1463 -1666,2223 -3360,2228 -817,1 -1574,-181 -2117,-563 -543,-383 -883,-957 -885,-1795 2,-842 315,-1412 878,-1794 565,-382 1398,-565 2426,-564 909,0 1548,-138 1970,-343 419,-203 636,-485 638,-776 0,-205 -115,-391 -298,-515l-1 -2 -2 -2 -61 97 -65 94c135,95 197,210 198,328 1,165 -131,385 -509,570 -376,183 -984,320 -1870,319 -1054,1 -1930,184 -2554,604 -626,418 -982,1085 -979,1984 -2,903 383,1565 982,1983 598,419 1399,603 2249,604 1761,5 3100,-825 3578,-2390l-109 -33 -115 0 0 2297 1364 0 0 -292 -114 0c-229,1 -363,-29 -434,-105 -76,-73 -134,-244 -133,-588l-12 -3811c3,-854 -446,-1460 -1116,-1826 -670,-369 -1560,-520 -2494,-521 -1110,0 -1957,181 -2539,471 -579,288 -904,701 -905,1158 -2,214 75,379 192,480 116,102 260,139 389,139 130,-3 252,-22 346,-109l68 -69 -56 -79c-37,-51 -56,-73 -68,-102 -12,-29 -24,-78 -24,-185 -1,-242 152,-567 553,-835 399,-267 1045,-476 2007,-476 907,0 1617,175 2108,487l62 -97 -65 94 65 -94z"/>
   <path class="fil0" d="M72971 91164l0 -115c-1250,-1 -2071,461 -2561,1114 -490,651 -656,1475 -656,2205 0,506 90,1038 298,1545l217 -72c-40,-154 -60,-311 -60,-467 0,-386 122,-760 358,-1033 236,-272 580,-450 1055,-451 641,0 1083,266 1559,551 472,283 974,585 1696,585 426,3 717,-206 872,-483 157,-276 200,-611 201,-906 0,-665 -292,-1313 -811,-1794 -519,-481 -1264,-794 -2168,-794l0 229c1700,2 2750,1166 2750,2359 1,272 -44,573 -171,793 -129,217 -318,363 -673,366 -654,0 -1104,-267 -1579,-551 -471,-283 -967,-584 -1676,-584 -534,-1 -953,209 -1228,531 -277,321 -414,748 -414,1182 0,175 22,352 68,524l111 -28 105 -44c-196,-476 -282,-980 -282,-1458 0,-695 162,-1473 611,-2068 450,-593 1182,-1020 2378,-1022l0 -114zm3319 4579l-113 -19c-124,742 -436,1283 -934,1648 -499,364 -1195,553 -2095,553 -1110,0 -2013,-288 -2637,-851 -624,-562 -982,-1404 -983,-2554 1,-1152 333,-1996 921,-2557 588,-561 1444,-848 2522,-849 964,0 1767,260 2326,709 557,452 877,1088 878,1877 0,287 -83,610 -283,853 -200,242 -513,419 -1015,420 -517,1 -1025,-214 -1552,-438 -527,-225 -1074,-457 -1678,-458 -472,-1 -840,183 -1078,465 -240,283 -354,656 -354,1038 0,476 177,969 530,1329l2 2 2 1c540,502 1345,826 2487,826 2100,5 2946,-1139 3103,-1973l-113 -22 0 115 64 0 0 -115 -113 -19 113 19 0 -114 -158 0 -18 92c-146,731 -864,1783 -2878,1788 -1102,-1 -1838,-308 -2331,-764l-78 83 81 -80c-306,-310 -464,-748 -464,-1168 0,-337 102,-657 300,-890 197,-231 489,-383 903,-384 543,0 1062,215 1589,439 526,223 1060,456 1641,457 556,1 951,-208 1192,-504 242,-296 335,-668 335,-998 1,-852 -354,-1565 -963,-2055 -610,-490 -1465,-760 -2470,-760 -1116,0 -2038,300 -2680,912 -643,612 -992,1529 -992,2723 -1,1196 379,2114 1058,2725 679,611 1643,909 2791,909 930,0 1678,-196 2230,-598 552,-401 896,-1009 1025,-1794l22 -133 -135 0 0 114z"/>
   <path class="fil0" d="M84693 92892l104 48c214,-465 314,-891 314,-1221 0,-175 -27,-325 -93,-443 -63,-118 -185,-204 -325,-201l0 114 115 0 0 -63 -115 0 0 114 1552 0 0 -114 -114 0 0 63 114 0 0 -114c-135,1 -260,63 -385,158 -372,285 -778,900 -1107,1612l-1716 3772c-145,323 -215,587 -216,803 0,161 42,301 135,401 93,99 229,145 375,144l0 -114 -114 0 0 62 114 0 0 -114 -1350 0 0 114 115 0 0 -62 -115 0 0 114c123,1 239,-40 312,-128 73,-88 99,-201 99,-324 -2,-255 -106,-585 -281,-983l-1830 -4113c-249,-556 -462,-887 -674,-1086 -212,-201 -435,-259 -641,-256l0 114 114 0 0 -63 -114 0 0 114 1854 0 0 -114 -114 0 0 63 114 0 0 -114c-125,0 -253,15 -362,91 -112,77 -174,217 -172,390 1,222 84,519 278,954l2198 4939 2035 -4510 0 1 -104 -48 -104 -47 -1826 4044 -1989 -4472c-190,-421 -260,-699 -259,-861 2,-129 34,-172 75,-203 43,-32 125,-50 230,-49l115 0 0 -292 -2084 0 0 292 115 0c171,2 308,32 485,194 175,163 379,469 621,1012l1829 4113c171,383 263,699 262,890 0,92 -21,148 -45,175 -23,27 -56,47 -137,48l-114 0 0 292 1578 0 0 -292 -114 0c-104,-1 -166,-28 -208,-72 -42,-45 -73,-120 -73,-244 -1,-164 58,-405 196,-709l1715 -3771c211,-459 461,-879 699,-1179 119,-149 234,-268 338,-346 103,-79 192,-112 247,-111l114 0 0 -292 -1780 0 0 292 114 0c56,2 85,18 125,84 37,65 65,181 64,331 1,284 -90,686 -293,1126l0 0 104 47z"/>
   <path class="fil0" d="M92399 93334l0 -114c-1313,0 -2114,279 -2590,717 -476,439 -603,1022 -602,1566 0,556 197,1122 666,1543 468,421 1196,692 2238,692 1312,1 2186,-445 2716,-1099 535,-653 726,-1495 726,-2283l0 -1073c4,-543 -186,-1018 -549,-1380l-442 -444 256 572c28,59 42,120 42,184 0,199 -135,443 -521,649 -382,204 -1010,356 -1940,356l0 228c954,0 1614,-153 2047,-382 432,-227 642,-541 642,-851 0,-97 -18,-192 -60,-279l-103 48 -84 81c321,320 484,727 484,1218l0 1073c0,752 -186,1542 -674,2138 -489,595 -1280,1013 -2540,1015 -1004,0 -1670,-260 -2085,-633 -415,-374 -589,-868 -590,-1373 1,-514 115,-1017 528,-1398 413,-381 1152,-657 2435,-657l0 -114zm2121 -1666l61 -97c-544,-343 -1298,-522 -2233,-522 -991,0 -1684,215 -2133,515 -448,299 -654,688 -654,1025 0,121 13,204 41,273 30,69 67,110 93,147l93 -66 -81 -81c-7,13 -87,44 -183,42 -86,0 -175,-26 -239,-82 -63,-57 -112,-144 -114,-308 -1,-338 242,-683 779,-953 535,-268 1353,-447 2440,-447 907,0 1763,151 2382,492 613,344 995,854 995,1627l14 3810c0,362 51,595 200,749 149,152 358,172 595,173l0 -114 -116 0 0 62 116 0 0 -114 -1023 0 0 -2828 -223 726c-456,1463 -1666,2223 -3359,2228 -816,1 -1573,-181 -2116,-563 -543,-383 -883,-957 -886,-1795 3,-842 315,-1412 879,-1794 565,-382 1398,-565 2426,-564 911,0 1549,-138 1972,-344 419,-203 632,-484 637,-775 0,-205 -116,-391 -297,-515l-5 -2 0 -2 -61 97 -64 94c134,95 195,210 195,328 4,165 -131,385 -507,570 -377,183 -982,320 -1870,319 -1054,1 -1930,184 -2554,604 -626,418 -982,1085 -980,1984 -1,903 384,1565 983,1983 598,419 1399,603 2248,604 1763,5 3099,-825 3578,-2390l-108 -33 -116 0 0 2297 1368 0 0 -292 -117 0c-227,1 -363,-29 -432,-105 -79,-73 -135,-244 -135,-588l-14 -3811c4,-854 -442,-1460 -1112,-1826 -674,-369 -1563,-520 -2493,-521 -1113,0 -1961,181 -2543,471 -578,288 -904,701 -905,1158 -1,214 75,379 192,480 117,102 261,139 390,139 130,-3 252,-22 346,-109l68 -69 -57 -79c-36,-51 -55,-73 -67,-102 -12,-29 -24,-78 -24,-185 -1,-242 153,-567 553,-835 399,-267 1047,-476 2005,-476 907,0 1619,175 2112,487l60 -97 -64 94 64 -94z"/>
  </g>
  <g id="_2868178468800">
   <path class="fil0" d="M9408 77435l-7496 -13248 0 13828c0,2960 692,4398 1521,4398l0 138 -3319 0 0 -138c830,0 1522,-1438 1522,-4398l0 -11893c0,-2433 -665,-2793 -1522,-2793l0 -138 2378 0 7496 13248 7440 -13248 2489 0 0 138c-829,0 -1521,360 -1521,2793l0 13497c0,2434 692,2794 1521,2794l0 138 -4011 0 0 -138c830,0 1522,-360 1522,-2794l0 -15792 -7274 12916 3291 5808 -1134 0 -2710 -4785 -2711 4785 -360 0 2878 -5116z"/>
   <path class="fil0" d="M9408 77435l99 -57 -7710 -13626 0 14263c1,1489 173,2600 457,3349 143,376 313,661 511,859 196,197 426,305 668,304l0 -114 -115 0 0 24 -3089 0 0 -24 -115 0 0 114c242,1 472,-107 669,-304 586,-594 963,-1974 967,-4208l0 -11893c-2,-1226 -164,-1943 -460,-2374 -297,-434 -735,-537 -1176,-534l0 115 115 0 0 -23 2197 0 7562 13366 7507 -13366 2307 0 0 23 115 0 0 -115c-428,-3 -865,100 -1165,533 -300,430 -470,1149 -471,2375l0 13497c1,1228 171,1946 471,2376 300,432 737,535 1165,532l0 -114 -115 0 0 24 -3781 0 0 -24 -115 0 0 114c428,3 866,-100 1166,-532 300,-430 469,-1148 471,-2376l0 -16228 -7520 13352 3226 5694 -871 0 -2777 -4903 -2778 4903 -96 0 2812 -5003 -32 -56 -99 57 -100 -57 -2973 5287 622 0 2644 -4666 2643 4666 1398 0 -3356 -5922 7027 -12479 1 15355c1,1207 -175,1886 -429,2244 -252,355 -576,432 -979,435l-114 0 0 367 4239 0 0 -367 -114 0c-402,-3 -726,-80 -978,-435 -254,-359 -430,-1037 -429,-2244l0 -13497c-1,-1207 175,-1884 429,-2243 252,-355 576,-432 978,-436l114 0 0 -367 -2670 0 -7373 13130 -7429 -13130 -2559 0 0 367 114 0c417,4 739,81 988,435 251,359 420,1037 418,2244l0 11893c1,1471 -172,2560 -441,3269 -135,354 -292,613 -458,777 -166,165 -334,237 -507,237l-114 0 0 367 3547 0 0 -367 -114 0c-173,0 -340,-72 -507,-237 -503,-493 -904,-1840 -900,-4046l0 -13393 7282 12869 100 -56 -100 -57 100 57z"/>
   <path class="fil0" d="M43596 82551l-2490 0 0 -4480c-664,2710 -2461,4757 -6195,4757 -3983,0 -6112,-1909 -6112,-5587l0 -6776c0,-2324 -692,-2655 -1521,-2655l0 -139 2489 0 0 9127c0,3264 1770,5172 5255,5172 4425,0 6084,-3070 6084,-6555l0 -4757c0,-2489 -691,-2848 -1521,-2848l0 -139 2490 0 0 11948c0,2434 663,2794 1521,2794l0 138z"/>
   <path class="fil0" d="M43596 82551l0 -114 -2375 0 0 -5314 -226 921c-328,1338 -933,2503 -1909,3334 -977,831 -2328,1335 -4175,1335 -1974,0 -3471,-473 -4473,-1384 -1000,-911 -1524,-2270 -1525,-4088l0 -6776c-1,-1172 -171,-1858 -472,-2267 -303,-413 -737,-505 -1163,-503l0 115 114 0 0 -25 2260 0 0 9013c0,1652 449,2979 1354,3891 905,912 2253,1396 4016,1396 2238,1 3801,-782 4790,-2014 991,-1231 1409,-2896 1409,-4656l0 -4757c-1,-1254 -171,-1986 -470,-2423 -300,-440 -738,-543 -1166,-540l0 115 115 0 0 -25 2260 0 0 11834c1,1227 163,1945 459,2375 298,434 736,536 1177,533l0 -114 -115 0 0 138 115 0 0 -114 0 114 114 0 0 -253 -114 0c-418,-3 -740,-80 -989,-434 -250,-358 -419,-1038 -418,-2245l0 -12062 -2718 0 0 367 114 0c402,3 725,80 978,442 254,365 430,1058 429,2292l0 4757c0,1725 -412,3338 -1358,4513 -946,1174 -2426,1926 -4612,1928 -1723,-1 -3002,-471 -3853,-1328 -852,-859 -1288,-2118 -1288,-3730l0 -9241 -2718 0 0 367 115 0c403,3 729,76 979,410 252,337 428,980 427,2131l0 6776c-1,1860 541,3295 1600,4257 1059,963 2618,1444 4627,1444 1887,1 3301,-519 4323,-1389 1022,-870 1648,-2084 1984,-3455l-112 -27 -114 0 0 4594 2718 0 0 -114 -114 0z"/>
   <path class="fil0" d="M51067 67671l2489 -276 0 4757c664,-2711 2461,-4757 6195,-4757 3982,0 6113,1909 6113,5559l0 6804c0,2295 691,2655 1521,2655l0 138 -4011 0 0 -138c830,0 1522,-360 1522,-2738l0 -6500c0,-3346 -1771,-5310 -5256,-5310 -4342,0 -6028,3153 -6084,6749l0 4949c0,2490 692,2850 1521,2850l0 138 -4010 0 0 -138c829,0 1521,-360 1521,-2794l0 -9016c0,-2434 -692,-2793 -1521,-2793l0 -139z"/>
   <path class="fil0" d="M51067 67671l12 114 2362 -263 0 5579 226 -922c328,-1339 933,-2505 1909,-3335 977,-830 2328,-1334 4175,-1335 1974,0 3471,473 4473,1381 1001,908 1524,2260 1525,4064l0 6804c1,1158 171,1843 471,2256 303,415 737,516 1165,513l0 -114 -115 0 0 24 -3782 0 0 -24 -114 0 0 114c428,3 863,-99 1165,-525 300,-422 470,-1127 471,-2327l0 -6500c0,-1693 -448,-3053 -1353,-3989 -904,-937 -2254,-1436 -4017,-1436 -2198,-1 -3748,804 -4739,2070 -993,1265 -1431,2977 -1460,4792l0 2 0 4949c1,1256 171,1987 470,2424 301,440 738,543 1166,540l0 -114 -115 0 0 24 -3781 0 0 -24 -114 0 0 114c428,3 865,-100 1165,-532 300,-430 469,-1148 471,-2376l0 -9016c-2,-1227 -171,-1945 -471,-2375 -300,-433 -737,-536 -1165,-533l0 115 114 0 0 -139 -114 0 12 114 -12 -114 -115 0 0 253 115 0c402,3 726,81 978,436 254,358 430,1036 428,2243l0 9016c2,1207 -174,1886 -428,2244 -252,355 -576,432 -978,435l-115 0 0 367 4239 0 0 -367 -114 0c-402,-3 -725,-79 -977,-441 -255,-366 -431,-1059 -430,-2294l0 -4949 -114 0 114 2c28,-1782 460,-3444 1411,-4654 951,-1210 2416,-1981 4559,-1982 1722,0 3000,483 3852,1365 852,882 1289,2176 1289,3830l0 6500c1,1179 -175,1842 -428,2194 -252,349 -577,426 -979,429l-114 0 0 367 4239 0 0 -367 -114 0c-403,-2 -729,-81 -980,-420 -253,-341 -428,-983 -427,-2120l0 -6804c1,-1846 -541,-3274 -1600,-4233 -1059,-960 -2618,-1441 -4627,-1441 -1887,0 -3301,519 -4323,1389 -1022,871 -1647,2084 -1983,3456l111 27 114 0 0 -4885 -2718 302 0 102 115 0z"/>
   <path class="fil0" d="M75132 67671l2489 -276 0 12168c0,2490 691,2850 1521,2850l0 138 -4010 0 0 -138c830,0 1522,-360 1522,-2794l0 -9016c0,-2434 -665,-2793 -1522,-2793l0 -139z"/>
   <path class="fil0" d="M75132 67671l13 114 2361 -263 0 12041c1,1256 171,1987 470,2424 300,440 738,543 1166,540l0 -114 -115 0 0 24 -3780 0 0 -24 -115 0 0 114c428,3 865,-100 1166,-532 299,-430 469,-1148 470,-2376l0 -9016c-1,-1226 -164,-1944 -460,-2375 -297,-433 -736,-536 -1176,-533l0 115 115 0 0 -139 -115 0 13 114 -13 -114 -115 0 0 253 115 0c417,3 740,81 988,435 251,358 420,1037 419,2244l0 9016c1,1207 -175,1885 -429,2244 -252,355 -576,432 -978,435l-115 0 0 367 4239 0 0 -367 -114 0c-402,-3 -725,-79 -978,-441 -254,-366 -429,-1059 -428,-2294l0 -12296 -2719 302 0 102 115 0z"/>
   <path class="fil0" d="M94358 75057c-4176,-886 -6887,-1910 -6887,-4150 0,-2489 3125,-3512 6389,-3512 4893,0 6335,2240 7247,2240 498,0 553,-608 414,-1964l251 0 414 4757 -139 0c-610,-1770 -3210,-4618 -8187,-4618 -2655,0 -5338,885 -5338,2793 0,1964 2794,2710 6445,3513 3540,774 7410,1631 7410,4950 0,2959 -2987,3762 -6331,3762 -2986,0 -4925,-720 -6418,-1909 -331,-276 -664,-442 -940,-442 -498,0 -830,553 -664,2047l-276 0 -581 -5532 138 0c1134,2793 3955,5310 8518,5310 2656,0 5502,-719 5502,-3153 0,-2295 -2376,-3125 -6967,-4092z"/>
   <path class="fil0" d="M94358 75057l23 -113c-2084,-441 -3798,-918 -4978,-1555 -1183,-641 -1815,-1414 -1817,-2482 1,-1191 737,-2026 1905,-2586 1166,-556 2750,-813 4369,-812 2433,0 3991,554 5066,1107 534,277 948,555 1292,766 340,210 610,364 889,367 204,6 386,-106 474,-294 89,-185 121,-434 121,-763 0,-283 -23,-625 -65,-1032l-116 11 0 114 144 0 395 4529 -13 0 0 114 106 -37c-623,-1821 -3269,-4694 -8293,-4696 -1340,1 -2688,223 -3712,692 -512,235 -945,532 -1253,901 -308,369 -488,811 -488,1315 0,519 188,966 523,1341 1007,1121 3270,1677 6014,2283 1768,387 3614,796 5005,1511 1390,721 2312,1719 2316,3328 -4,1439 -712,2326 -1847,2888 -1139,558 -2707,760 -4372,759 -2972,-1 -4873,-712 -6346,-1883l-72 89 73 -88c-343,-284 -690,-466 -1013,-469 -241,-3 -467,121 -606,365 -141,243 -215,595 -215,1089 0,213 14,452 44,720l113 -12 0 -115 -173 0 -557 -5302 11 0 0 -115 -106 43c1147,2832 4017,5384 8624,5381 1339,0 2726,-179 3795,-674 1070,-491 1829,-1326 1824,-2593 0,-593 -154,-1103 -466,-1538 -465,-653 -1255,-1134 -2353,-1547 -1103,-413 -2516,-757 -4242,-1120l-23 113 -24 111c2294,483 4029,933 5177,1538 572,302 1000,641 1280,1037 279,397 423,852 423,1406 -4,1168 -670,1908 -1694,2385 -1018,473 -2381,654 -3697,654 -4519,-2 -7291,-2485 -8412,-5239l-29 -72 -343 0 606 5761 507 0 -14 -127c-29,-261 -43,-492 -42,-695 -1,-471 74,-788 183,-973 113,-185 240,-249 409,-252 230,-2 547,148 867,417l1 0 1 1c1514,1206 3484,1934 6489,1933 1679,-1 3279,-199 4470,-782 1196,-579 1982,-1573 1977,-3094 5,-1709 -1010,-2800 -2442,-3531 -1428,-736 -3289,-1143 -5061,-1531 -1823,-400 -3428,-787 -4567,-1313 -568,-262 -1019,-558 -1322,-900 -303,-342 -464,-725 -464,-1188 0,-450 156,-833 434,-1168 831,-1007 2817,-1514 4789,-1511 4930,-1 7489,2823 8080,4542l23 77 349 0 -438 -4986 -479 0 14 126c38,404 65,739 65,1009 0,314 -37,537 -97,662 -70,124 -130,161 -270,167 -181,3 -432,-123 -767,-333 -1015,-629 -2782,-1911 -6480,-1908 -1642,1 -3254,256 -4467,834 -1211,574 -2038,1495 -2036,2793 -2,1173 719,2031 1937,2684 1219,656 2947,1133 5040,1577l24 -111z"/>
   <path class="fil0" d="M118592 72512c-5698,0 -6749,2433 -6749,4756 0,2324 1628,4647 6112,4647 5642,0 7298,-3789 7298,-7163l0 -2351c0,-1133 -386,-2102 -1131,-2849 526,1161 -748,2960 -5530,2960zm4642 -3651c-1130,-720 -2735,-1107 -4754,-1107 -4289,0 -5865,1853 -5865,3125 0,498 111,581 251,775 -111,111 -335,166 -582,166 -469,0 -1023,-277 -1023,-1107 0,-1742 2489,-3318 7303,-3318 4038,0 7661,1328 7661,4895l23 8353c0,1549 475,1770 1498,1770l0 138 -2493 0 0 -4785c-1023,3319 -3815,5062 -7606,5062 -3646,0 -6828,-1605 -6828,-5421 0,-3817 2931,-5421 7494,-5421 5340,0 6252,-2212 4921,-3125z"/>
   <path class="fil0" d="M118592 72512l0 -115c-2866,0 -4587,611 -5591,1538 -1005,927 -1275,2157 -1275,3333 0,1189 419,2386 1414,3280 996,896 2554,1482 4815,1481 2842,2 4711,-960 5851,-2358 1144,-1397 1563,-3214 1563,-4919l0 -2351c0,-1160 -400,-2162 -1167,-2930l-443 -443 256 571c65,145 103,300 103,461 0,501 -340,1079 -1214,1542 -870,461 -2261,795 -4312,795l0 229c2074,0 3502,-335 4419,-821 916,-485 1335,-1133 1335,-1745 0,-194 -42,-382 -121,-555l-103 47 -84 81c726,726 1103,1660 1103,2768l0 2351c0,1669 -414,3434 -1512,4774 -1097,1340 -2879,2273 -5674,2275 -2224,-1 -3722,-576 -4662,-1423 -939,-848 -1339,-1974 -1339,-3110 0,-1146 260,-2295 1200,-3165 945,-870 2600,-1477 5438,-1477l0 -114zm4642 -3651l65 -97c-1163,-736 -2786,-1124 -4819,-1124 -2163,0 -3651,466 -4605,1105 -953,638 -1372,1451 -1372,2134 0,257 28,420 79,546 56,127 126,205 191,296l93 -67 -84 -80c-65,73 -265,134 -498,132 -214,0 -441,-64 -614,-214 -167,-151 -293,-389 -298,-779 0,-811 582,-1607 1787,-2210 1200,-600 3009,-994 5405,-994 2005,-1 3903,331 5289,1096 1381,767 2251,1943 2256,3685l28 8353c0,783 111,1257 395,1546 284,287 698,338 1214,338l0 -114 -117 0 0 24 -2260 0 0 -5431 -223 727c-1014,3267 -3740,4975 -7499,4980 -1809,1 -3493,-399 -4716,-1258 -1224,-861 -1996,-2172 -2000,-4048 4,-1880 716,-3187 1986,-4047 1274,-859 3126,-1260 5396,-1259 1981,-1 3363,-302 4261,-738 892,-435 1316,-1016 1321,-1578 0,-399 -224,-764 -596,-1019l0 -2 -65 97 -65 94c325,225 493,518 493,830 5,436 -335,955 -1191,1372 -851,414 -2200,714 -4158,714 -2293,0 -4191,402 -5522,1299 -1335,896 -2093,2300 -2088,4237 0,1941 814,3340 2098,4235 1274,897 3005,1299 4846,1300 3824,5 6680,-1773 7717,-5142l-111 -34 -112 0 0 4899 2717 0 0 -367 -112 0c-507,1 -847,-59 -1051,-269 -209,-210 -331,-621 -331,-1386l-28 -8353c5,-1825 -939,-3097 -2376,-3886 -1438,-791 -3368,-1123 -5396,-1124 -2419,1 -4261,395 -5507,1018 -1247,621 -1912,1485 -1912,2415 0,440 153,755 377,951 223,195 507,270 762,271 265,-3 507,-52 661,-200l70 -69 -56 -78c-75,-104 -130,-164 -168,-252 -32,-87 -60,-216 -60,-457 0,-587 367,-1337 1270,-1944 907,-606 2349,-1066 4479,-1066 2005,-1 3586,385 4693,1088l61 -96 -65 94 65 -94z"/>
   <line class="fil1" x1="42342" y1="52458" x2="85517" y2= "52458" />
   <polygon class="fil0" points="42342,52458 47739,52408 53135,52390 63929,52355 74723,52389 80119,52407 85517,52458 80119,52507 74723,52525 63929,52560 53135,52525 47739,52507 "/>
   <path class="fil0" d="M72930 44504c-315,-324 -647,-680 -996,-1074l-3081 -713 20 37c119,184 233,364 336,532 365,497 623,964 791,1390l4 4c627,1573 74,2602 -902,2602l0 197 7914 0 0 -197c-770,0 -2110,-742 -4086,-2778z"/>
   <path class="fil0" d="M72930 44504l-8085 -12388 -549 -841 4 -4 -1316 -2037 -19042 -29234 -6319 0 0 323c2274,0 4044,833 4044,6443l0 27443c0,6832 -1836,10151 -4044,10151l0 316 8823 0 0 -316c-2210,0 -4045,-3319 -4045,-10151l0 -31910 23021 35303c0,0 17,21 46,66 303,438 2118,3061 3385,5049l20 37 4168 1922 -111 -172zm17306 -44181l0 -323 -6615 0 -13055 20195 774 212 12281 -18940 0 36443c0,5618 -1835,6450 -4044,6450l0 316 10659 0 0 -316c-2209,0 -4045,-832 -4045,-6450l0 -31144c0,-5610 1836,-6443 4045,-6443z"/>
   <path class="fil0" d="M54879 43352l0 -17777 -1607 -2348c34,328 50,697 50,1098l0 19027c0,3426 -1136,3934 -2476,3934l0 193 6508 0 0 -193c-1349,0 -2475,-508 -2475,-3934zm2102 -23157l296 389 73 0 -254 -389 -115 0zm5041 0l-2127 0 270 389 1320 0c9691,0 10618,1730 10618,5660 0,3725 -1750,6129 -7766,8096l545 468c5122,-1471 8885,-3840 8885,-8405 0,-6040 -5017,-6208 -11745,-6208z"/>
   <polygon class="fil0" points="71340,20407 70602,21543 69893,21235 70566,20195 "/>
   <path class="fil0" d="M76195 63684l-1391 0c-651,0 -1284,-206 -1811,-589l2775 0 427 589z"/>
   <polygon class="fil0" points="78012,64723 78867,67363 76623,65731 73256,68295 74608,66940 76731,65078 77743,65816 77333,64552 77796,64147 78435,63684 77054,63684 77482,63095 80257,63095 "/>
   <polygon class="fil0" points="77336,62643 76625,60455 75919,62627 76350,63214 76625,62370 76905,63231 "/>
  </g>
 </g>
</svg>
