<?xml version="1.0" encoding="UTF-8"?>
<!DOCTYPE svg PUBLIC "-//W3C//DTD SVG 1.1//EN" "http://www.w3.org/Graphics/SVG/1.1/DTD/svg11.dtd">
<!-- Creator: CorelDRAW X8 -->
<svg xmlns="http://www.w3.org/2000/svg" xml:space="preserve" width="1060px" height="814px" version="1.1" style="shape-rendering:geometricPrecision; text-rendering:geometricPrecision; image-rendering:optimizeQuality; fill-rule:evenodd; clip-rule:evenodd"
viewBox="0 0 131151 100681"
 xmlns:xlink="http://www.w3.org/1999/xlink">
 <defs>
  <style type="text/css">
   <![CDATA[
    .fil0 {fill:white;fill-rule:nonzero}
   ]]>
  </style>
 </defs>
 <g id="Слой_x0020_1">
  <metadata id="CorelCorpID_0Corel-Layer"/>
  <g>
   <path id="white" class="fil0" d="M35219 96501l-1967 -2226 0 2860 1967 -634zm479 -168c2200,-738 3416,-1450 3416,-2847 0,-1308 -711,-1980 -3506,-1980l-2356 0 0 2057 2446 2770zm-3611 4037c389,0 712,-168 712,-1307l0 -6315c0,-1139 -323,-1307 -712,-1307l0 -65 3676 0c1941,0 3830,156 3830,2161 0,1786 -2122,2420 -3778,2938l2278 2588c853,971 1410,1307 1707,1307l0 65 -1902 0 0 -65c465,0 427,-336 -427,-1307l-2148 -2445 -2071 672 0 1773c0,1139 324,1307 712,1307l0 65 -1877 0 0 -65zm3132 -3869l88 -78 -2172 -2458 0 3331 2291 -739 -119 -134 -88 78 -36 -112 -1813 584 0 -2388 1762 1994 87 -78 -36 -112 36 112zm479 -168l38 111c1104,-371 1968,-735 2567,-1194 599,-457 932,-1030 929,-1764 3,-672 -193,-1227 -760,-1580 -564,-353 -1458,-517 -2864,-518l-2473 0 0 2219 2527 2862 74 -25 -38 -111 88 -78 -2416 -2736 0 -1896 2238 0c1388,-1 2247,171 2739,482 487,310 646,744 650,1381 -3,662 -278,1145 -837,1577 -559,430 -1404,791 -2499,1159l37 111 88 -78 -88 78zm-3611 4037l0 117c208,4 444,-51 598,-276 153,-221 231,-568 232,-1148l0 -6315c-1,-580 -79,-927 -232,-1148 -154,-224 -390,-280 -598,-277l0 118 118 0 0 -65 -118 0 0 118 3676 0c967,-1 1915,41 2599,319 342,140 618,334 809,607 192,275 304,634 305,1117 -2,841 -491,1405 -1212,1844 -718,436 -1656,723 -2484,982l-173 54 2397 2724c431,490 789,821 1082,1035 294,212 521,310 714,311l0 -117 -117 0 0 65 117 0 0 -118 -1902 0 0 118 117 0 0 -65 -117 0 0 117c107,0 200,-13 282,-62 82,-47 136,-148 132,-245 -2,-141 -69,-287 -191,-480 -123,-192 -307,-425 -561,-714l-2200 -2504 -2225 723 0 1858c1,580 79,927 232,1148 154,225 390,280 597,276l0 -117 -118 0 0 65 118 0 0 -118 -1877 0 0 118 118 0 0 -65 -118 0 0 117 0 -117 -117 0 0 182 2112 0 0 -299 -118 0c-181,-4 -301,-32 -405,-177 -106,-147 -190,-454 -189,-1013l0 -1688 1916 -622 2097 2388c250,283 427,511 540,687 115,174 157,300 155,352l-21 45c-19,13 -75,28 -159,28l-118 0 0 299 2137 0 0 -299 -117 0c-104,1 -304,-69 -576,-268 -273,-198 -621,-518 -1043,-999l-2278 -2589 -88 78 35 112c828,-259 1780,-548 2536,-1005 754,-454 1326,-1100 1325,-2045 0,-519 -124,-932 -347,-1251 -336,-480 -881,-734 -1511,-870 -632,-136 -1360,-158 -2090,-158l-3793 0 0 301 117 0c182,2 302,31 406,176 106,148 190,454 189,1013l0 6315c1,559 -83,866 -189,1013 -104,145 -224,173 -406,177l-117 0 0 117 117 0zm12024 -9007c311,0 518,207 518,518 0,311 -207,517 -518,517 -311,0 -504,-206 -504,-517 0,-311 193,-518 504,-518zm-815 2110l1165 -130 0 5694c0,1165 323,1333 711,1333l0 65 -1876 0 0 -65c388,0 712,-168 712,-1307l0 -4219c0,-1139 -311,-1307 -712,-1307l0 -64zm815 -2110l0 118c130,1 226,42 292,107 67,67 108,163 108,293 0,130 -41,225 -108,292 -66,67 -162,108 -292,108 -130,-1 -220,-41 -284,-106 -63,-66 -103,-163 -103,-294 0,-131 40,-228 103,-294 63,-65 154,-105 284,-106l0 -235c-180,-1 -342,62 -453,178 -112,116 -169,277 -169,457 0,179 57,341 169,457 111,115 273,179 453,178 181,1 344,-62 458,-177 116,-114 178,-277 177,-458 1,-181 -61,-344 -177,-458 -114,-115 -277,-178 -458,-177l0 117zm-815 2110l13 117 1034 -116 0 5563c1,593 79,946 231,1170 154,228 391,284 598,280l0 -117 -117 0 0 65 117 0 0 -118 -1876 0 0 118 117 0 0 -65 -117 0 0 117c207,4 443,-51 597,-276 153,-221 231,-568 232,-1148l0 -4219c-1,-579 -75,-926 -226,-1147 -153,-226 -390,-280 -603,-277l0 117 117 0 0 -64 -117 0 13 117 -13 -117 -117 0 0 182 117 0c188,3 307,32 410,175 104,148 186,455 184,1014l0 4219c1,559 -83,866 -188,1013 -105,145 -225,173 -406,177l-117 0 0 299 2111 0 0 -299 -118 0c-180,-4 -299,-32 -404,-179 -107,-151 -191,-465 -190,-1037l0 -5825 -1399 155 0 106 117 0zm12851 4917c-529,1217 -1099,1915 -2820,1915l-3882 0c0,-1147 1020,-2413 2413,-3660l97 -85 63 -59 3 2c47,-42 99,-87 153,-132 64,-54 130,-111 194,-165 45,-40 89,-78 137,-116l92 -78c78,-63 130,-106 130,-106 971,-793 2050,-1569 3058,-2305l0 -127 -6147 0 -569 2224 64 0c713,-1849 1114,-2097 2238,-2097l3638 0c-969,727 -1994,1488 -2917,2251 -66,54 -130,108 -189,158 -236,201 -419,361 -489,422l-31 29c-1384,1256 -2404,2546 -2404,3844l0 131 6547 0 687 -2046 -66 0zm0 0l-108 -47c-262,603 -528,1061 -927,1368 -398,306 -939,477 -1785,477l-3882 0 0 117 117 0c-7,-1076 985,-2335 2374,-3573l0 1 96 -85 1 -1 65 -59 -80 -87 -82 83 2 3 79 78 82 -74c46,-42 97,-85 150,-129l1 -1 0 -1c65,-54 130,-111 194,-165l2 -1 1 -1 131 -111 2 -1 93 -80 -76 -89 74 91c78,-64 131,-106 131,-106 966,-791 2044,-1565 3053,-2301l48 -36 0 -304 -6356 0 -630 2459 296 0 29 -75c354,-920 631,-1430 934,-1697 299,-264 638,-324 1195,-325l3638 0 0 -117 -71 -94c-968,727 -1994,1489 -2921,2254 -67,55 -131,110 -190,158l0 1c-237,202 -420,364 -490,424l-1 1 -32 29c-1389,1264 -2438,2567 -2442,3931l0 248 6748 0 766 -2280 -306 0 -31 70 108 47 0 118 66 0 0 -118 -111 -37 -661 1965 -6345 0 0 -13c-4,-1233 987,-2508 2366,-3757l31 -29 -79 -87 77 89c72,-62 252,-222 488,-422l-1 1c60,-50 124,-104 188,-158 921,-760 1945,-1520 2913,-2248l281 -211 -3989 0c-566,-1 -991,63 -1351,385 -357,320 -638,859 -997,1787l110 43 0 -118 -64 0 0 118 113 29 547 -2136 5939 0 0 10 117 0 -69 -95c-1008,736 -2089,1512 -3064,2309 0,0 -51,42 -129,106l-1 1 -93 78 76 90 -73 -91c-49,38 -96,78 -142,119l78 88 -76 -89c-64,54 -130,111 -194,165l76 89 -75 -91c-55,47 -108,92 -157,136l79 87 83 -83 -2 -2 -80 -80 -147 135 -95 84 0 0c-1398,1257 -2447,2529 -2453,3748l0 118 4000 0c875,1 1479,-179 1929,-526 449,-347 731,-846 999,-1460l-108 -47 0 118 0 -118zm7198 -2653c-2666,0 -3158,1139 -3158,2226 0,1087 764,2174 2860,2174 2640,0 3417,-1773 3417,-3351l0 -1101c0,-530 -182,-983 -531,-1332 246,543 -350,1384 -2588,1384zm2174 -1708c-531,-336 -1282,-517 -2227,-517 -2005,0 -2742,866 -2742,1462 0,233 51,271 116,362 -52,52 -155,78 -272,78 -220,0 -478,-130 -478,-518 0,-815 1164,-1553 3416,-1553 1889,0 3584,622 3584,2291l13 3908c0,724 221,828 699,828l0 65 -1164 0 0 -2239c-479,1552 -1787,2368 -3559,2368 -1708,0 -3197,-751 -3197,-2536 0,-1786 1372,-2537 3508,-2537 2496,0 2925,-1035 2303,-1462zm-2174 1708l0 -117c-1349,0 -2170,287 -2659,736 -488,450 -618,1048 -617,1607 0,570 202,1150 684,1582 479,432 1226,710 2294,709 1345,2 2243,-456 2789,-1126 547,-669 745,-1535 745,-2342l0 -1101c1,-557 -193,-1045 -566,-1415l-455 -457 266 588c27,60 41,124 41,189 0,204 -138,455 -533,665 -393,209 -1036,365 -1989,365l0 234c978,0 1656,-157 2099,-391 442,-233 657,-556 657,-873 0,-100 -21,-197 -61,-286l-107 49 -83 83c327,327 495,746 496,1249l0 1101c0,770 -191,1581 -691,2193 -502,610 -1314,1039 -2608,1041 -1029,0 -1712,-267 -2138,-650 -425,-383 -604,-891 -604,-1407 0,-528 117,-1043 541,-1434 423,-392 1181,-675 2499,-675l0 -117zm2174 -1708l63 -99c-558,-353 -1330,-535 -2290,-536 -1019,0 -1728,220 -2189,528 -459,307 -670,705 -671,1052 0,124 14,209 43,280 30,70 68,112 95,150l96 -68 -84 -83c-7,13 -89,46 -188,43 -88,0 -179,-25 -244,-83 -65,-59 -116,-148 -117,-317 -1,-347 248,-700 799,-977 549,-275 1387,-459 2500,-459 931,0 1811,156 2444,505 632,353 1020,876 1023,1669l13 3908c1,372 51,610 203,768 157,156 369,176 613,177l0 -117 -118 0 0 65 118 0 0 -118 -1047 0 0 -2900 -230 744c-466,1501 -1707,2280 -3446,2286 -838,0 -1614,-186 -2172,-578 -556,-393 -905,-981 -907,-1841 2,-864 323,-1448 901,-1841 579,-391 1434,-579 2489,-579 932,0 1587,-141 2020,-351 430,-209 653,-497 654,-795 0,-211 -117,-402 -305,-530l-2 -1 -1 -1 -63 99 -67 97c139,96 203,214 204,336 1,169 -135,394 -522,584 -386,188 -1010,328 -1918,328 -1081,0 -1980,189 -2621,619 -642,429 -1007,1112 -1004,2035 -2,926 393,1606 1007,2034 614,429 1436,619 2307,619 1807,5 3180,-846 3670,-2451l-111 -34 -118 0 0 2356 1399 0 0 -299 -117 0c-235,0 -372,-30 -446,-108 -78,-75 -137,-250 -135,-603l-13 -3908c3,-877 -457,-1500 -1144,-1875 -688,-377 -1601,-533 -2558,-534 -1139,1 -2009,186 -2605,484 -594,295 -928,718 -929,1187 -1,220 77,389 197,493 119,104 267,142 399,143 134,-3 259,-23 355,-113l70 -70 -58 -81c-38,-52 -58,-75 -70,-105 -12,-30 -24,-81 -24,-189 0,-249 156,-582 567,-857 410,-274 1072,-488 2058,-488 931,0 1660,179 2163,499l64 -99 -67 97 67 -97zm9332 -517c-2511,0 -3184,1824 -3184,3286 0,505 91,1036 298,1540 -259,-996 259,-2148 1501,-2148 1385,0 1929,1165 3339,1165 802,0 983,-725 983,-1307 0,-1294 -1139,-2536 -2937,-2536zm3403 4697c-258,1566 -1346,2355 -3222,2355 -2317,0 -3830,-1203 -3830,-3610 0,-2408 1397,-3611 3649,-3611 2019,0 3403,1087 3403,2769 0,635 -363,1424 -1449,1424 -1126,0 -2136,-918 -3313,-918 -1475,0 -1722,1811 -842,2703 531,492 1321,816 2472,816 2110,0 2912,-1125 3068,-1928l64 0zm-3403 -4697l0 -118c-1283,-2 -2125,473 -2627,1142 -503,668 -674,1514 -675,2262 0,519 94,1065 307,1585l223 -74c-41,-158 -61,-319 -61,-479 0,-397 125,-780 366,-1059 242,-280 595,-462 1082,-464 657,1 1112,274 1599,566 484,291 1000,600 1740,599 438,4 735,-210 894,-494 161,-283 206,-627 207,-930 0,-682 -300,-1347 -832,-1839 -532,-494 -1297,-815 -2223,-815l0 235c1743,2 2819,1195 2820,2419 1,279 -45,589 -175,813 -133,224 -326,373 -691,376 -671,0 -1132,-274 -1619,-566 -483,-290 -993,-599 -1720,-598 -547,-2 -977,215 -1260,545 -283,329 -424,766 -424,1212 0,179 23,361 69,537l114 -29 109 -44c-202,-489 -289,-1005 -289,-1496 -1,-713 165,-1511 626,-2121 461,-608 1212,-1046 2440,-1048l0 -117zm3403 4697l-115 -19c-128,760 -447,1315 -958,1689 -512,374 -1227,568 -2149,568 -1139,-1 -2065,-296 -2705,-873 -640,-577 -1007,-1440 -1008,-2620 0,-1183 341,-2048 944,-2623 603,-576 1482,-870 2588,-871 988,0 1812,267 2385,729 572,461 899,1115 901,1923 0,296 -86,627 -291,876 -205,248 -525,429 -1041,430 -530,2 -1051,-219 -1591,-450 -541,-229 -1102,-467 -1722,-468 -484,-1 -860,187 -1106,477 -245,290 -363,673 -363,1065 0,487 182,994 544,1362l2 2 1 2c556,515 1380,847 2552,846 2154,6 3022,-1167 3183,-2023l-115 -22 0 117 64 0 0 -117 -115 -19 115 19 0 -117 -161 0 -19 94c-150,749 -886,1829 -2952,1834 -1130,-1 -1885,-316 -2392,-785l-80 86 84 -81c-314,-318 -476,-768 -476,-1198 0,-346 104,-675 308,-913 203,-237 502,-393 926,-394 557,-1 1090,219 1629,450 541,228 1088,468 1684,468 572,2 976,-212 1223,-517 248,-303 343,-684 343,-1024 1,-874 -363,-1605 -989,-2107 -624,-502 -1501,-779 -2531,-780 -1146,0 -2091,308 -2750,936 -659,628 -1017,1567 -1017,2793 -1,1226 389,2169 1086,2795 696,626 1684,933 2862,932 954,0 1721,-200 2287,-613 565,-412 919,-1035 1051,-1840l22 -136 -138 0 0 117zm8620 -2925c441,-957 389,-1747 0,-1747l0 -64 1592 0 0 64c-388,0 -983,790 -1424,1747l-1759 3869c-362,803 -233,1217 194,1217l0 65 -1385 0 0 -65c427,0 375,-517 26,-1307l-1877 -4219c-504,-1126 -853,-1307 -1242,-1307l0 -64 1903 0 0 64c-388,0 -661,181 -156,1307l2148 4828 1980 -4388zm0 0l107 49c218,-476 321,-913 322,-1252 -1,-180 -28,-333 -96,-454 -64,-122 -189,-210 -333,-207l0 117 118 0 0 -64 -118 0 0 117 1592 0 0 -117 -117 0 0 64 117 0 0 -117c-138,1 -267,65 -395,162 -382,293 -798,924 -1135,1653l-1760 3870c-149,331 -222,602 -222,824 0,164 43,308 139,410 95,102 234,149 384,148l0 -117 -118 0 0 65 118 0 0 -118 -1385 0 0 118 117 0 0 -65 -117 0 0 117c126,2 245,-41 320,-132 75,-90 101,-206 102,-331 -2,-262 -109,-600 -288,-1008l-1877 -4219c-256,-571 -474,-909 -692,-1115 -217,-206 -446,-265 -658,-262l0 117 117 0 0 -64 -117 0 0 117 1903 0 0 -117 -118 0 0 64 118 0 0 -117c-129,0 -261,16 -373,94 -114,79 -178,223 -176,400 1,227 87,532 286,978l2255 5066 2087 -4626 0 1 -107 -49 -107 -48 -1872 4148 -2042 -4587c-194,-431 -266,-717 -265,-883 3,-132 35,-176 78,-209 43,-33 127,-51 236,-50l117 0 0 -300 -2137 0 0 300 117 0c176,2 317,34 498,200 179,167 388,481 637,1037l1877 4219c175,392 269,717 268,913 0,94 -21,152 -46,180 -24,27 -58,48 -141,49l-118 0 0 299 1620 0 0 -299 -117 0c-107,-1 -170,-29 -213,-74 -43,-46 -74,-123 -75,-250 0,-169 60,-415 201,-727l1759 -3869c217,-471 473,-901 717,-1208 122,-154 241,-276 347,-355 106,-82 197,-117 253,-115l118 0 0 -300 -1827 0 0 300 117 0c57,2 87,19 129,86 38,67 65,186 65,340 0,291 -92,703 -300,1154l-1 1 107 48zm7905 453c-2665,0 -3157,1139 -3157,2226 0,1087 763,2174 2860,2174 2640,0 3417,-1773 3417,-3351l0 -1101c0,-530 -182,-983 -531,-1332 245,543 -349,1384 -2589,1384zm2175 -1708c-531,-336 -1281,-517 -2226,-517 -2006,0 -2743,866 -2743,1462 0,233 51,271 116,362 -52,52 -155,78 -272,78 -220,0 -479,-130 -479,-518 0,-815 1165,-1553 3417,-1553 1889,0 3585,622 3585,2291l13 3908c0,724 220,828 698,828l0 65 -1164 0 0 -2239c-479,1552 -1786,2368 -3560,2368 -1708,0 -3196,-751 -3196,-2536 0,-1786 1372,-2537 3507,-2537 2498,0 2925,-1035 2304,-1462zm-2175 1708l0 -117c-1347,0 -2169,287 -2657,736 -489,450 -619,1048 -617,1607 -1,570 202,1150 682,1582 481,432 1228,710 2295,709 1345,2 2242,-456 2789,-1126 547,-669 745,-1535 745,-2342l0 -1101c1,-557 -193,-1045 -565,-1415l-455 -456 265 587c27,60 41,123 41,189 1,204 -138,455 -533,665 -394,209 -1036,365 -1990,365l0 234c979,0 1657,-157 2100,-392 442,-232 658,-555 658,-872 0,-100 -22,-197 -62,-286l-107 49 -83 83c327,327 495,746 496,1249l0 1101c0,770 -190,1581 -691,2193 -502,610 -1313,1039 -2608,1041 -1028,0 -1712,-267 -2137,-650 -426,-383 -605,-891 -605,-1407 0,-528 117,-1043 541,-1434 424,-392 1181,-675 2498,-675l0 -117zm2175 -1708l63 -99c-558,-353 -1330,-535 -2289,-536 -1019,0 -1729,220 -2190,528 -459,307 -670,705 -671,1052 0,124 14,209 43,280 30,70 68,112 95,150l96 -68 -83 -83c-8,14 -89,46 -189,43 -87,0 -179,-25 -245,-83 -64,-59 -115,-148 -117,-317 0,-347 248,-700 800,-977 549,-275 1387,-459 2500,-459 931,0 1812,156 2444,505 633,353 1020,876 1023,1669l13 3908c1,372 52,610 204,768 156,156 368,176 612,177l0 -117 -117 0 0 65 117 0 0 -118 -1047 0 0 -2900 -230 744c-466,1501 -1707,2280 -3447,2286 -837,0 -1614,-186 -2171,-578 -556,-393 -905,-981 -907,-1841 3,-864 323,-1448 900,-1841 580,-391 1435,-579 2489,-579 933,0 1588,-141 2021,-351 430,-209 652,-498 654,-795 1,-211 -118,-402 -305,-530l-1 -1 -2 -1 -63 99 -66 97c138,96 202,214 202,336 2,168 -133,394 -522,584 -385,188 -1009,328 -1918,328 -1081,0 -1979,189 -2619,619 -642,429 -1008,1112 -1005,2035 -2,926 393,1606 1007,2034 614,429 1436,619 2306,619 1808,5 3181,-846 3672,-2451l-112 -34 -118 0 0 2356 1399 0 0 -299 -117 0c-234,0 -371,-30 -445,-108 -78,-75 -137,-250 -136,-603l-13 -3908c3,-877 -457,-1500 -1145,-1875 -687,-377 -1600,-533 -2557,-534 -1139,1 -2009,186 -2606,484 -593,295 -927,718 -928,1187 -2,220 77,389 197,493 119,104 267,142 399,143 134,-3 259,-23 355,-113l70 -70 -57 -81c-38,-52 -58,-75 -70,-105 -13,-30 -25,-81 -25,-189 -1,-249 157,-582 568,-857 409,-274 1071,-488 2058,-488 930,0 1659,179 2163,499l63 -99 -66 97 66 -97zm-87304 -14601l-7689 -13589 0 14185c0,3036 710,4511 1561,4511l0 142 -3405 0 0 -142c851,0 1560,-1475 1560,-4511l0 -12199c0,-2496 -680,-2865 -1560,-2865l0 -142 2440 0 7688 13589 7632 -13589 2553 0 0 142c-851,0 -1560,369 -1560,2865l0 13845c0,2496 709,2865 1560,2865l0 142 -4114 0 0 -142c851,0 1561,-369 1561,-2865l0 -16199 -7461 13248 3376 5958 -1164 0 -2780 -4908 -2780 4908 -369 0 2951 -5249zm0 0l102 -58 -7908 -13976 0 14630c0,1527 177,2667 469,3436 145,384 320,678 523,880 202,203 438,313 686,313l0 -118 -118 0 0 24 -3169 0 0 -24 -118 0 0 118c248,0 484,-110 686,-313 601,-609 989,-2025 992,-4316l0 -12199c-1,-1258 -168,-1994 -472,-2435 -305,-446 -754,-551 -1206,-547l0 117 118 0 0 -25 2253 0 7757 13711 7700 -13711 2368 0 0 25 117 0 0 -117c-439,-4 -887,102 -1196,546 -306,441 -481,1178 -482,2436l0 13845c1,1258 176,1995 482,2436 309,445 757,550 1196,547l0 -118 -117 0 0 24 -3879 0 0 -24 -118 0 0 118c439,3 887,-102 1196,-547 307,-441 482,-1178 483,-2436l0 -16648 -7715 13697 3310 5840 -893 0 -2849 -5028 -2849 5028 -99 0 2884 -5131 -32 -58 -102 58 -103 -57 -3049 5423 638 0 2712 -4787 2712 4787 1433 0 -3442 -6075 7208 -12800 0 15751c2,1237 -179,1933 -439,2301 -259,365 -591,444 -1004,447l-117 0 0 376 4348 0 0 -376 -117 0c-412,-3 -745,-82 -1003,-447 -260,-368 -442,-1064 -440,-2301l0 -13845c-2,-1238 180,-1933 440,-2301 258,-365 591,-444 1003,-446l117 0 0 -377 -2738 0 -7564 13466 -7620 -13466 -2625 0 0 377 117 0c428,2 758,81 1014,445 256,367 431,1064 429,2302l0 12199c0,1509 -177,2625 -453,3352 -138,363 -300,629 -470,798 -171,169 -342,243 -520,244l-117 0 0 376 3639 0 0 -376 -117 0c-178,-1 -350,-75 -520,-244 -516,-505 -927,-1887 -923,-4150l0 -13738 7468 13200 103 -58 -103 -57 103 57zm35068 5249l-2553 0 0 -4596c-681,2780 -2525,4880 -6355,4880 -4085,0 -6270,-1958 -6270,-5732l0 -6950c0,-2383 -710,-2723 -1560,-2723l0 -142 2554 0 0 9362c0,3347 1816,5305 5390,5305 4539,0 6241,-3149 6241,-6724l0 -4879c0,-2554 -710,-2922 -1560,-2922l0 -142 2554 0 0 12256c0,2496 679,2865 1559,2865l0 142zm0 0l0 -118 -2436 0 0 -5450 -231 944c-337,1374 -957,2569 -1959,3421 -1001,852 -2387,1369 -4282,1369 -2025,0 -3561,-485 -4588,-1420 -1027,-934 -1564,-2328 -1564,-4194l0 -6950c-1,-1202 -176,-1905 -484,-2325 -311,-423 -757,-518 -1194,-516l0 118 117 0 0 -25 2319 0 0 9245c0,1693 460,3055 1389,3990 928,936 2311,1433 4119,1432 2296,2 3899,-801 4914,-2065 1015,-1263 1444,-2970 1444,-4776l0 -4879c0,-1288 -175,-2037 -481,-2486 -309,-451 -758,-557 -1196,-554l0 118 117 0 0 -25 2319 0 0 12139c1,1258 167,1994 471,2435 305,446 754,551 1206,548l0 -118 -117 0 0 142 117 0 0 -118 0 118 118 0 0 -259 -118 0c-428,-4 -758,-83 -1013,-446 -257,-367 -431,-1065 -429,-2302l0 -12374 -2789 0 0 378 118 0c412,2 743,81 1003,452 260,375 440,1085 440,2352l0 4879c0,1770 -422,3424 -1393,4629 -971,1205 -2488,1977 -4731,1978 -1767,-1 -3079,-483 -3952,-1363 -874,-880 -1321,-2171 -1321,-3825l0 -9480 -2788 0 0 378 117 0c414,2 749,77 1005,420 259,346 439,1005 438,2185l0 6950c-1,1909 554,3381 1641,4368 1087,987 2685,1481 4746,1481 1935,0 3386,-533 4435,-1425 1048,-892 1690,-2137 2034,-3544l-114 -28 -117 0 0 4713 2788 0 0 -117 -118 0zm7664 -15263l2553 -284 0 4880c681,-2781 2525,-4880 6355,-4880 4085,0 6269,1958 6269,5702l0 6980c0,2354 709,2723 1561,2723l0 142 -4114 0 0 -142c852,0 1561,-369 1561,-2808l0 -6668c0,-3432 -1816,-5446 -5391,-5446 -4454,0 -6184,3234 -6241,6922l0 5078c0,2553 709,2922 1560,2922l0 142 -4113 0 0 -142c851,0 1561,-369 1561,-2865l0 -9249c0,-2497 -710,-2865 -1561,-2865l0 -142zm0 0l13 116 2422 -269 0 5722 232 -945c337,-1374 957,-2569 1958,-3421 1002,-852 2389,-1369 4283,-1369 2025,0 3560,485 4588,1416 1027,931 1563,2318 1564,4168l0 6980c1,1188 176,1891 484,2314 310,425 755,529 1194,527l0 -118 -118 0 0 24 -3879 0 0 -24 -117 0 0 118c439,3 886,-102 1195,-539 307,-434 482,-1157 483,-2387l0 -6668c0,-1736 -460,-3131 -1387,-4092 -928,-961 -2312,-1473 -4121,-1472 -2255,-2 -3844,824 -4862,2123 -1017,1298 -1468,3054 -1496,4915l-1 2 0 5078c2,1286 176,2037 482,2485 308,452 758,558 1196,555l0 -118 -118 0 0 24 -3878 0 0 -24 -117 0 0 118c438,3 887,-102 1195,-547 307,-441 482,-1178 483,-2436l0 -9249c-1,-1259 -176,-1996 -483,-2437 -308,-444 -757,-549 -1195,-546l0 118 117 0 0 -142 -117 0 13 116 -13 -116 -117 0 0 260 117 0c412,2 745,82 1003,446 260,367 441,1063 440,2301l0 9249c1,1237 -180,1933 -440,2301 -258,365 -591,444 -1003,447l-117 0 0 376 4347 0 0 -376 -117 0c-412,-4 -743,-82 -1003,-453 -260,-375 -441,-1086 -440,-2352l0 -5078 -117 0 117 1c28,-1826 472,-3531 1447,-4773 975,-1240 2478,-2032 4677,-2033 1767,1 3078,496 3952,1400 873,905 1321,2232 1321,3929l0 6668c1,1209 -179,1890 -439,2250 -258,358 -592,438 -1004,441l-117 0 0 376 4348 0 0 -376 -117 0c-412,-3 -747,-84 -1005,-431 -259,-350 -439,-1009 -438,-2175l0 -6980c1,-1893 -555,-3358 -1642,-4342 -1086,-983 -2685,-1477 -4745,-1477 -1935,-1 -3386,532 -4435,1425 -1048,892 -1690,2137 -2034,3543l114 29 117 0 0 -5011 -2787 310 0 105 117 0zm24685 0l2553 -284 0 12483c0,2553 709,2922 1560,2922l0 142 -4113 0 0 -142c851,0 1561,-369 1561,-2865l0 -9249c0,-2497 -682,-2865 -1561,-2865l0 -142zm0 0l13 116 2422 -269 0 12352c2,1286 176,2037 482,2485 309,452 758,558 1196,555l0 -118 -117 0 0 24 -3878 0 0 -24 -118 0 0 118c438,3 887,-102 1196,-547 307,-441 481,-1178 482,-2436l0 -9249c-1,-1259 -168,-1995 -471,-2436 -306,-445 -755,-550 -1207,-547l0 118 118 0 0 -142 -118 0 13 116 -13 -116 -117 0 0 260 117 0c428,2 758,82 1014,445 256,367 431,1063 429,2302l0 9249c1,1237 -179,1933 -440,2301 -258,365 -591,444 -1003,447l-117 0 0 376 4348 0 0 -376 -118 0c-412,-4 -743,-82 -1002,-453 -261,-375 -442,-1086 -440,-2352l0 -12614 -2788 310 0 105 117 0zm19720 7575c-4283,-908 -7064,-1958 -7064,-4256 0,-2554 3207,-3603 6554,-3603 5021,0 6496,2298 7433,2298 510,0 568,-624 426,-2014l255 0 426 4880 -142 0c-624,-1816 -3292,-4738 -8398,-4738 -2724,0 -5475,907 -5475,2865 0,2015 2865,2780 6610,3603 3631,795 7603,1673 7603,5078 0,3036 -3064,3859 -6497,3859 -3063,0 -5050,-739 -6581,-1958 -341,-284 -682,-454 -965,-454 -511,0 -851,568 -681,2099l-284 0 -595 -5674 141 0c1164,2865 4057,5448 8738,5448 2723,0 5646,-738 5646,-3235 0,-2355 -2440,-3206 -7150,-4198zm0 0l25 -115c-2138,-453 -3897,-942 -5107,-1595 -1213,-658 -1862,-1451 -1864,-2546 2,-1222 757,-2078 1955,-2653 1195,-571 2820,-833 4481,-832 2493,0 4094,568 5194,1135 551,284 975,569 1327,786 351,215 628,373 912,376 213,6 397,-109 486,-301 92,-190 124,-446 124,-784 0,-290 -25,-640 -67,-1058l-117 12 0 117 148 0 405 4645 -14 0 0 118 111 -39c-643,-1868 -3354,-4815 -8509,-4817 -1375,1 -2757,228 -3808,709 -1048,478 -1785,1233 -1785,2274 0,532 193,991 536,1375 1033,1150 3356,1721 6166,2343 1816,396 3709,816 5136,1550 1427,739 2373,1762 2375,3413 -4,1476 -728,2385 -1895,2963 -1166,572 -2777,779 -4484,778 -3046,-1 -4998,-730 -6508,-1932l-73 92 75 -90c-353,-292 -709,-479 -1040,-482 -247,-3 -479,124 -621,374 -145,249 -221,611 -222,1117 0,218 15,464 45,739l117 -13 0 -117 -178 0 -571 -5439 11 0 0 -118 -108 45c1176,2905 4120,5522 8846,5520 1373,-1 2797,-185 3894,-692 1095,-503 1872,-1360 1869,-2660 1,-608 -159,-1131 -476,-1577 -476,-670 -1289,-1164 -2417,-1587 -1130,-423 -2581,-776 -4349,-1149l-25 115 -24 115c2352,495 4134,957 5311,1577 589,310 1024,658 1312,1064 288,407 433,874 433,1442 -2,1198 -686,1957 -1733,2447 -1046,486 -2444,670 -3795,670 -4636,-2 -7479,-2549 -8629,-5374l-29 -73 -352 0 621 5909 521 0 -15 -131c-30,-268 -44,-505 -44,-713 -1,-483 76,-807 189,-998 114,-189 245,-254 419,-258 236,-2 561,152 890,427l1 1 1 1c1552,1238 3573,1984 6654,1983 1726,-1 3364,-205 4588,-803 1223,-594 2031,-1613 2026,-3173 4,-1753 -1037,-2872 -2503,-3622 -1468,-755 -3376,-1173 -5192,-1571 -1870,-410 -3519,-808 -4685,-1346 -584,-269 -1045,-572 -1356,-923 -311,-351 -476,-744 -477,-1219 0,-916 640,-1595 1648,-2060 1005,-462 2362,-688 3710,-687 5058,-2 7681,2894 8287,4658l27 79 353 0 -446 -5115 -492 0 13 130c43,413 67,758 67,1034 0,322 -36,551 -101,681 -68,125 -131,164 -275,169 -184,4 -444,-125 -789,-341 -1039,-644 -2853,-1959 -6644,-1956 -1686,0 -3338,262 -4582,855 -1243,589 -2091,1534 -2088,2865 -3,1203 738,2083 1986,2752 1251,674 3024,1163 5170,1619l24 -115zm24856 -2610c-5844,0 -6922,2496 -6922,4880 0,2382 1673,4765 6270,4765 5787,0 7489,-3886 7489,-7348l0 -2411c0,-1163 -396,-2155 -1162,-2922 538,1192 -767,3036 -5675,3036zm4766 -3746c-1163,-737 -2808,-1134 -4880,-1134 -4396,0 -6014,1901 -6014,3206 0,511 114,595 255,794 -112,114 -340,170 -595,170 -482,0 -1049,-283 -1049,-1134 0,-1787 2553,-3405 7489,-3405 4142,0 7858,1362 7858,5022l28 8567c0,1589 483,1816 1533,1816l0 142 -2554 0 0 -4908c-1050,3404 -3914,5192 -7801,5192 -3745,0 -7008,-1646 -7008,-5561 0,-3915 3008,-5561 7689,-5561 5475,0 6411,-2269 5049,-3206zm-4766 3746l0 -117c-2937,0 -4700,626 -5733,1577 -1032,951 -1308,2212 -1306,3420 -2,1218 429,2445 1449,3363 1021,919 2621,1520 4938,1519 2919,3 4834,-984 6006,-2418 1172,-1433 1600,-3297 1600,-5047l0 -2411c1,-1189 -408,-2218 -1197,-3005l-455 -455 265 587c68,148 103,307 103,472 0,514 -349,1107 -1243,1582 -892,473 -2322,816 -4427,816l0 235c2130,-1 3594,-344 4537,-844 940,-497 1368,-1162 1368,-1789 0,-199 -43,-391 -124,-569l-106 48 -83 83c743,745 1127,1702 1128,2839l0 2411c0,1713 -422,3523 -1548,4898 -1126,1375 -2956,2332 -5824,2333 -2279,0 -3814,-590 -4780,-1459 -965,-870 -1372,-2025 -1373,-3189 1,-1177 265,-2356 1232,-3248 968,-893 2666,-1515 5573,-1514l0 -118zm4766 -3746l63 -98c-1190,-754 -2857,-1153 -4943,-1153 -2215,0 -3741,478 -4721,1133 -978,655 -1410,1488 -1410,2190 0,263 29,429 83,559 55,131 128,210 194,303l95 -68 -83 -83c-69,76 -274,138 -512,136 -219,0 -453,-65 -628,-219 -175,-154 -303,-398 -304,-798 -1,-833 595,-1649 1829,-2268 1231,-616 3088,-1020 5543,-1019 2058,-1 4006,340 5426,1123 1418,787 2312,1993 2315,3781l28 8568c1,802 117,1289 406,1586 294,294 714,346 1244,347l0 -118 -118 0 0 24 -2319 0 0 -5570 -229 745c-1038,3352 -3837,5104 -7689,5109 -1856,1 -3585,-409 -4841,-1291 -1255,-883 -2047,-2227 -2050,-4152 3,-1928 732,-3269 2038,-4151 1307,-881 3207,-1293 5534,-1292 2030,-1 3447,-309 4368,-757 918,-446 1353,-1041 1355,-1618 1,-409 -226,-784 -607,-1045l-3 -1 -1 -1 -63 98 -67 97c334,231 506,532 506,852 2,447 -347,980 -1223,1407 -873,425 -2259,733 -4265,733 -2354,0 -4298,412 -5666,1332 -1369,920 -2143,2359 -2141,4346 -2,1990 837,3427 2150,4345 1313,919 3087,1333 4976,1333 3921,5 6852,-1818 7913,-5275l-112 -34 -117 0 0 5025 2788 0 0 -376 -117 0c-520,1 -867,-61 -1077,-278 -215,-213 -339,-635 -338,-1421l-28 -8567c3,-1872 -963,-3177 -2437,-3986 -1474,-813 -3455,-1153 -5539,-1153 -2481,0 -4369,405 -5648,1044 -1277,637 -1958,1523 -1959,2478 -1,451 154,774 384,974 229,201 520,277 783,277 272,-2 521,-52 679,-204l70 -70 -58 -81c-77,-106 -131,-168 -168,-257 -38,-90 -66,-222 -66,-469 0,-603 377,-1373 1307,-1995 928,-621 2409,-1093 4590,-1093 2057,-1 3681,394 4817,1116l63 -100 -67 97 67 -97zm-82976 -16825l44286 0 -44286 0zm0 0c3690,-41 7381,-66 11071,-69l11071 -36 11072 36 5536 18 5536 51 -5536 51 -5536 19 -11072 35 -11071 -36c-3690,-3 -7381,-28 -11071,-69zm31375 -8158c-323,-333 -664,-698 -1021,-1101l-3161 -732 21 38c122,189 240,374 345,546 373,508 638,988 811,1425l4 4c643,1614 75,2669 -924,2669l0 202 8117 0 0 -202c-791,0 -2166,-761 -4192,-2849zm0 0l-8293 -12708 -564 -861 5 -4 -1350 -2090 -19533 -29987 -6482 0 0 332c2333,0 4149,853 4149,6608l0 28150c0,7008 -1883,10412 -4149,10412l0 324 9050 0 0 -324c-2266,0 -4148,-3404 -4148,-10412l0 -32732 23615 36212 46 68c311,449 2173,3140 3472,5179l21 38 4275 1971 -114 -176zm17752 -45318l0 -332 -6785 0 -13393 20715 796 218 12597 -19428 0 37381c0,5763 -1882,6616 -4149,6616l0 324 10934 0 0 -324c-2266,0 -4149,-853 -4149,-6616l0 -31946c0,-5755 1883,-6608 4149,-6608zm-36268 44136l0 -18234 -1648 -2409c34,336 51,715 51,1126l0 19517c0,3514 -1165,4035 -2539,4035l0 198 6675 0 0 -198c-1383,0 -2539,-521 -2539,-4035zm2157 -23753l302 398 76 0 -261 -398 -117 0zm5169 0l-2181 0 278 398 1353 0c9942,0 10891,1775 10891,5806 0,3821 -1795,6288 -7965,8306l558 479c5255,-1509 9114,-3938 9114,-8620 0,-6197 -5145,-6369 -12048,-6369zm9560 218l-758 1165 -726 -316 688 -1067 796 218zm4980 44391l-1428 0c-667,0 -1317,-212 -1856,-604l2845 0 439 604zm1863 1066l877 2707 -2302 -1674 -3454 2630 1387 -1389 2177 -1910 1039 757 -420 -1296 475 -416 655 -475 -1416 0 439 -604 2845 0 -2302 1670zm-694 -2134l-729 -2244 -724 2228 442 602 282 -866 287 883 442 -603z"/>
  </g>
 </g>
</svg>
